<?xml version="1.0" encoding="UTF-8" standalone="no"?>
<svg xmlns="http://www.w3.org/2000/svg" width="200" height="100" viewBox="0 0 200 100">
  <style>
    .logo-text { font-family: 'Arial', sans-serif; font-weight: bold; }
    .leaf { fill: #e65100; }
    .house { fill: #2e7d32; }
  </style>
  
  <!-- House outline -->
  <path class="house" d="M100,10 L60,40 L60,90 L140,90 L140,40 Z" stroke="#2e7d32" stroke-width="3" fill="none"/>
  
  <!-- Maple leaf -->
  <path class="leaf" d="M100,20 C100,20 95,25 90,30 C85,25 80,20 80,20 C80,20 85,35 90,40 C85,45 80,50 80,50 C80,50 90,45 95,40 C100,45 110,50 110,50 C110,50 105,45 100,40 C105,35 110,20 110,20 C110,20 105,25 100,30 C95,25 90,20 90,20"/>
  
  <!-- Text -->
  <text x="100" y="65" class="logo-text" text-anchor="middle" fill="#2e7d32" font-size="14">VANCOUVER</text>
  <text x="100" y="80" class="logo-text" text-anchor="middle" fill="#2e7d32" font-size="8">RESIDENCIAL - CANELA - RS</text>
</svg>
